<svg width="1200" height="800" viewBox="0 0 1200 800" fill="none" xmlns="http://www.w3.org/2000/svg">
  <rect width="1200" height="800" rx="28" fill="#F8FAFC"/>
  <rect x="44" y="44" width="1112" height="712" rx="22" fill="#FFFFFF" stroke="#2563EB" stroke-width="8"/>
  <rect x="76" y="76" width="1048" height="648" rx="16" stroke="#CBD5E1" stroke-width="4"/>
  <path d="M104 166C260 104 424 104 580 166C736 228 900 228 1056 166" stroke="#DBEAFE" stroke-width="20" stroke-linecap="round"/>
  <path d="M104 634C260 696 424 696 580 634C736 572 900 572 1056 634" stroke="#DBEAFE" stroke-width="20" stroke-linecap="round"/>
  <circle cx="600" cy="144" r="50" fill="#1E40AF"/>
  <path d="M573 152C581 128 619 128 627 152C612 165 588 165 573 152Z" fill="#FFFFFF"/>
  <path d="M584 133H616" stroke="#BFDBFE" stroke-width="8" stroke-linecap="round"/>
  <text x="600" y="246" text-anchor="middle" fill="#0F172A" font-family="Georgia, 'Times New Roman', serif" font-size="54" font-weight="700" letter-spacing="3">CERTIFICATE</text>
  <text x="600" y="291" text-anchor="middle" fill="#2563EB" font-family="Arial, sans-serif" font-size="19" font-weight="800" letter-spacing="6">COURSE COMPLETION</text>
  <text x="600" y="358" text-anchor="middle" fill="#64748B" font-family="Arial, sans-serif" font-size="22">Awarded to</text>
  <text x="600" y="430" text-anchor="middle" fill="#111827" font-family="Georgia, 'Times New Roman', serif" font-size="63" font-weight="700">Alex Johnson</text>
  <path d="M386 450H814" stroke="#93C5FD" stroke-width="3"/>
  <text x="600" y="502" text-anchor="middle" fill="#334155" font-family="Arial, sans-serif" font-size="24">for verified mastery in</text>
  <text x="600" y="550" text-anchor="middle" fill="#1D4ED8" font-family="Arial, sans-serif" font-size="35" font-weight="800">Database Systems</text>
  <g>
    <rect x="140" y="138" width="92" height="92" rx="20" fill="#EFF6FF" stroke="#BFDBFE" stroke-width="3"/>
    <path d="M168 186H204M168 167H204M168 205H194" stroke="#2563EB" stroke-width="8" stroke-linecap="round"/>
    <rect x="968" y="138" width="92" height="92" rx="20" fill="#EFF6FF" stroke="#BFDBFE" stroke-width="3"/>
    <path d="M990 196C1000 177 1028 177 1038 196" stroke="#2563EB" stroke-width="8" stroke-linecap="round"/>
    <circle cx="1014" cy="171" r="15" fill="#2563EB"/>
  </g>
  <path d="M170 626H390" stroke="#0F172A" stroke-width="2"/>
  <text x="280" y="658" text-anchor="middle" fill="#475569" font-family="Arial, sans-serif" font-size="17" font-weight="700">Prof. Mike Osei</text>
  <text x="280" y="681" text-anchor="middle" fill="#94A3B8" font-family="Arial, sans-serif" font-size="13">Course Mentor</text>
  <g>
    <circle cx="600" cy="641" r="49" fill="#1D4ED8"/>
    <circle cx="600" cy="641" r="36" fill="#DBEAFE"/>
    <path d="M580 642L594 656L623 621" stroke="#1E3A8A" stroke-width="8" stroke-linecap="round" stroke-linejoin="round"/>
  </g>
  <path d="M810 626H1030" stroke="#0F172A" stroke-width="2"/>
  <text x="920" y="658" text-anchor="middle" fill="#475569" font-family="Arial, sans-serif" font-size="17" font-weight="700">May 29, 2026</text>
  <text x="920" y="681" text-anchor="middle" fill="#94A3B8" font-family="Arial, sans-serif" font-size="13">Issued Date</text>
  <text x="600" y="716" text-anchor="middle" fill="#94A3B8" font-family="Arial, sans-serif" font-size="14">Credential ID: JAWA-DB-2026-0821</text>
</svg>
