<svg width="1200" height="800" viewBox="0 0 1200 800" fill="none" xmlns="http://www.w3.org/2000/svg">
  <rect width="1200" height="800" rx="28" fill="#FFFBEB"/>
  <rect x="40" y="40" width="1120" height="720" rx="26" fill="#FFFFFF" stroke="#A855F7" stroke-width="8"/>
  <rect x="72" y="72" width="1056" height="656" rx="18" stroke="#F3E8FF" stroke-width="10"/>
  <path d="M98 98H1102V702H98V98Z" stroke="#D97706" stroke-width="3"/>
  <circle cx="154" cy="154" r="56" fill="#F3E8FF"/>
  <circle cx="1046" cy="154" r="56" fill="#F3E8FF"/>
  <circle cx="154" cy="646" r="56" fill="#F3E8FF"/>
  <circle cx="1046" cy="646" r="56" fill="#F3E8FF"/>
  <path d="M136 154C148 132 178 132 190 154C178 176 148 176 136 154Z" fill="#A855F7"/>
  <path d="M1028 154C1040 132 1070 132 1082 154C1070 176 1040 176 1028 154Z" fill="#A855F7"/>
  <path d="M136 646C148 624 178 624 190 646C178 668 148 668 136 646Z" fill="#A855F7"/>
  <path d="M1028 646C1040 624 1070 624 1082 646C1070 668 1040 668 1028 646Z" fill="#A855F7"/>
  <text x="600" y="231" text-anchor="middle" fill="#0F172A" font-family="Georgia, 'Times New Roman', serif" font-size="56" font-weight="700" letter-spacing="3">CERTIFICATE</text>
  <text x="600" y="278" text-anchor="middle" fill="#9333EA" font-family="Arial, sans-serif" font-size="19" font-weight="800" letter-spacing="6">PROFESSIONAL SKILL AWARD</text>
  <text x="600" y="345" text-anchor="middle" fill="#64748B" font-family="Arial, sans-serif" font-size="22">Presented with distinction to</text>
  <text x="600" y="420" text-anchor="middle" fill="#111827" font-family="Georgia, 'Times New Roman', serif" font-size="63" font-weight="700">Alex Johnson</text>
  <path d="M380 442H820" stroke="#D8B4FE" stroke-width="4"/>
  <text x="600" y="494" text-anchor="middle" fill="#334155" font-family="Arial, sans-serif" font-size="24">for excellence in</text>
  <text x="600" y="544" text-anchor="middle" fill="#7E22CE" font-family="Arial, sans-serif" font-size="35" font-weight="800">UI/UX Design Fundamentals</text>
  <g>
    <path d="M568 610L600 584L632 610V676H568V610Z" fill="#9333EA"/>
    <circle cx="600" cy="604" r="50" fill="#F59E0B"/>
    <circle cx="600" cy="604" r="36" fill="#FEF3C7"/>
    <path d="M578 606L593 621L624 584" stroke="#92400E" stroke-width="8" stroke-linecap="round" stroke-linejoin="round"/>
  </g>
  <path d="M174 626H392" stroke="#0F172A" stroke-width="2"/>
  <text x="283" y="658" text-anchor="middle" fill="#475569" font-family="Arial, sans-serif" font-size="17" font-weight="700">Dr. Sara Ali</text>
  <text x="283" y="681" text-anchor="middle" fill="#94A3B8" font-family="Arial, sans-serif" font-size="13">Program Director</text>
  <path d="M808 626H1026" stroke="#0F172A" stroke-width="2"/>
  <text x="917" y="658" text-anchor="middle" fill="#475569" font-family="Arial, sans-serif" font-size="17" font-weight="700">April 18, 2026</text>
  <text x="917" y="681" text-anchor="middle" fill="#94A3B8" font-family="Arial, sans-serif" font-size="13">Issued Date</text>
  <text x="600" y="716" text-anchor="middle" fill="#94A3B8" font-family="Arial, sans-serif" font-size="14">Credential ID: JAWA-UX-2026-0337</text>
</svg>
